<?xml version="1.0" encoding="UTF-8" standalone="no"?>
<!-- Created with Inkscape (http://www.inkscape.org/) -->

<svg
   width="1081.155"
   height="918.12994"
   viewBox="0 0 1081.1551 918.12994"
   version="1.1"
   id="svg5"
   inkscape:export-filename="logo.svg"
   inkscape:export-xdpi="100"
   inkscape:export-ydpi="100"
   xmlns:inkscape="http://www.inkscape.org/namespaces/inkscape"
   xmlns:sodipodi="http://sodipodi.sourceforge.net/DTD/sodipodi-0.dtd"
   xmlns="http://www.w3.org/2000/svg"
   xmlns:svg="http://www.w3.org/2000/svg">
  <sodipodi:namedview
     id="namedview7"
     pagecolor="#ffffff"
     bordercolor="#000000"
     borderopacity="0.25"
     inkscape:showpageshadow="2"
     inkscape:pageopacity="0"
     inkscape:pagecheckerboard="false"
     inkscape:deskcolor="#d1d1d1"
     inkscape:document-units="mm"
     showgrid="false" />
  <defs
     id="defs2" />
  <g
     inkscape:label="Layer 1"
     inkscape:groupmode="layer"
     id="layer1"
     transform="translate(-58.53606,-5.3208202)">
    <g
       id="g1737"
       transform="matrix(2,0,0,2,-413.50428,-687.95075)">
      <path
         style="fill:#5e77a5;fill-opacity:1;stroke-width:8.31496;stroke-linecap:round;stroke-linejoin:round;paint-order:fill markers stroke"
         d="M 378.71934,677.84758 C 309.46895,673.2331 236.02017,661.5928 236.02017,574.93953 c 0,-17.35807 3.29114,-40.97771 13.72108,-54.88429 27.53339,-36.71119 105.05757,-35.08009 112.5128,-42.53533 2.26995,-2.26995 6.43939,-26.12437 10.97686,-32.93057 9.28954,-13.93432 27.89223,-16.46529 38.41901,-16.46529 11.57062,0 21.02392,-24.67534 27.44215,-34.30268 29.94072,-44.91109 89.52985,-62.63679 141.32705,-31.55847 47.43405,28.46043 49.22883,78.04308 63.11694,91.93119 0.71417,0.71417 91.65247,-0.77612 118.00123,46.65165 70.4875,126.8775 -125.34476,140.26413 -197.58346,152.30391 -63.72127,10.62021 -135.36659,29.68473 -198.95557,23.32583"
         id="path994"
         sodipodi:nodetypes="cssssssssssc" />
      <path
         style="fill:#ffffff;fill-opacity:1;stroke-width:16.1646;stroke-linecap:round;stroke-linejoin:round;paint-order:fill markers stroke"
         d="m 481.49343,587.63923 c -5.29371,-13.70981 -5.33383,-27.14714 -5.33383,-41.5261 0,-7.50593 0.78099,-25.28365 7.1118,-30.7601 44.52482,-38.51588 30.70481,142.53371 -1.77797,72.2862 z"
         id="path1334" />
      <path
         style="fill:#ffffff;fill-opacity:1;stroke-width:18.0547;stroke-linecap:round;stroke-linejoin:round;paint-order:fill markers stroke"
         d="m 643.44816,572.71593 c -4.88126,-10.85558 -5.37155,-22.22278 -6.74854,-33.36191 -1.258,-10.17657 -4.534,-22.71138 4.49902,-31.84545 40.80361,-41.26002 33.27014,127.94259 2.24952,65.20736 z"
         id="path1336" />
      <path
         style="fill:#5e77a5;fill-opacity:1;stroke-width:18.9217;stroke-linecap:round;stroke-linejoin:round;paint-order:fill markers stroke"
         d="m 479.06705,689.3281 c -28.65449,26.44916 -92.43487,115.26026 -43.14743,116.36601 36.64797,0.82222 35.36386,-74.92679 43.14743,-116.36601 z"
         id="path1407"
         sodipodi:nodetypes="csc" />
      <path
         style="fill:#5e77a5;fill-opacity:1;stroke-width:18.9217;stroke-linecap:round;stroke-linejoin:round;paint-order:fill markers stroke"
         d="m 644.23506,658.64703 c -5.63544,31.67978 -58.71876,80.35778 -43.08724,113.6462 13.35552,28.44159 32.54914,2.20286 35.09647,-7.29044 9.52319,-35.49051 1.48828,-71.73682 7.99077,-106.35576 z"
         id="path1409"
         sodipodi:nodetypes="cssc" />
    </g>
  </g>
</svg>
